<svg xmlns="http://www.w3.org/2000/svg" viewBox="0 0 897.25 732.54"><defs><style>.cls-1{fill:#0071bc;}.cls-2{fill:#fff;}</style></defs><title>wie2-svg</title><g id="W"><path class="cls-1" d="M7306.2,6905.82q-13.06-47.19-20.8-67.69t-27.81-37.89q-20.07-17.4-56.33-17.4-35.79,0-56.58,16.68t-30,39.57q-9.2,22.88-20.8,66.73l-104,381.83-92.85-408q-10.15-47.2-23.69-72t-52.71-24.79q-28.55,0-47.88,18.59t-19.34,45.76q0,21.45,10.64,62.45l118,470.48q5.31,21,12.09,45.53t17.41,42.42a75.46,75.46,0,0,0,27.81,27.65q17.16,9.76,43.76,9.77,32.88,0,52.71-16.45t27.81-37.18q8-20.73,21.52-68.4l116.06-419,54.42,198.94q46.11-37.84,107.72-49.44Z" transform="translate(-6751.98 -6781.37)"/><path class="cls-2" d="M7305.42,6906c-4.21-15.14-8.55-30.25-13.25-45.23-2.37-7.48-4.81-15-7.57-22.28a82.38,82.38,0,0,0-11.32-20.3,111,111,0,0,0-16-17,63.74,63.74,0,0,0-19.95-11.62,87.68,87.68,0,0,0-11.18-3.22,111.58,111.58,0,0,0-11.52-1.76c-3.88-.35-7.77-.6-11.67-.59-1.95-.05-3.9,0-5.85.06s-3.89.14-5.83.32a101.43,101.43,0,0,0-22.85,4.21,69.94,69.94,0,0,0-20.61,10.27c-12.29,9.38-22.65,21.5-29.19,35.48-1.66,3.47-3,7.11-4.38,10.78s-2.62,7.37-3.85,11.08c-2.45,7.44-4.72,14.94-6.88,22.48-4.36,15.05-8.1,30.32-12.16,45.51-16.08,60.79-31.83,121.68-47.69,182.53s-31.55,121.75-47.26,182.65a6.69,6.69,0,0,1-13-.09l-.05-.18-58.63-242.59-29.06-121.36-7.27-30.35-3.61-15.15c-1.15-5-2.38-9.9-3.67-14.8-2.61-9.77-5.46-19.41-8.86-28.68-1.7-4.63-3.52-9.17-5.52-13.54l-1.53-3.23-1.6-3.16-.83-1.54c-.27-.5-.56-1.08-.8-1.42-.52-.77-.93-1.64-1.51-2.34a29.76,29.76,0,0,0-7.74-7.56,37.86,37.86,0,0,0-10.59-4.8,62.32,62.32,0,0,0-12.7-2.25c-2.25-.15-4.5-.31-6.82-.31l-1.73,0c-.57,0-1.1,0-1.66,0l-1.64.05-1.63.11a53.65,53.65,0,0,0-23.75,7.18,55.16,55.16,0,0,0-9.85,7.58,52,52,0,0,0-7.85,9.54,46.62,46.62,0,0,0-7.12,22.85,85.55,85.55,0,0,0,.43,13.39c.46,4.71,1.17,9.54,2,14.4,1.71,9.74,4,19.59,6.45,29.42l7.71,30.15,30.55,121,30.23,121.06,29.91,121.13c9.92,40.35,19.52,81,30,120.85l1.93,7.51c.64,2.37,1.3,4.73,2,7.06q2.11,7,4.77,13.75c1.77,4.48,3.72,8.85,5.89,13.06,1.07,2.09,2.25,4.2,3.41,6.15a65.3,65.3,0,0,0,3.64,5.54,62.42,62.42,0,0,0,19.16,17.39c7.15,4.17,15.81,6.66,25,7.78a109.31,109.31,0,0,0,14.1.83,99.74,99.74,0,0,0,13.92-.93,63.72,63.72,0,0,0,24.91-8.56,53.61,53.61,0,0,0,5.27-3.7c1.81-1.47,3.62-3,5.33-4.6a86.83,86.83,0,0,0,9.44-10.16,73.84,73.84,0,0,0,7.44-11.4c1-2,2-4,2.83-6.13.91-2.25,1.81-4.62,2.68-7,3.49-9.49,6.69-19.29,9.83-29.1s6.17-19.74,9.13-29.62l17.46-59.87,34.9-119.77,34.91-119.78,34.7-119.84,0-.09a4,4,0,0,1,7.73.1l26.11,99.78,26.38,99.7-3.24-1a231.22,231.22,0,0,1,51.3-31.53,253.4,253.4,0,0,1,57.47-17.64l-1,1.64-28.24-104.17Zm1.55-.43,57.3,208.11a.9.9,0,0,1-.63,1.11l-.07,0a248.31,248.31,0,0,0-56.81,17.81,228.32,228.32,0,0,0-50.47,31.49,1,1,0,0,1-1.36-.13.94.94,0,0,1-.18-.36l-54.52-198.92h2.05l-66.49,240.5-33.24,120.24c-11.26,40-21.44,80.38-35.06,119.8-.87,2.47-1.77,4.91-2.72,7.36s-2,4.87-3.23,7.23a85.56,85.56,0,0,1-8.46,13.36,98.82,98.82,0,0,1-10.59,11.71c-1.9,1.82-3.88,3.54-5.9,5.23a66.78,66.78,0,0,1-6.44,4.67,76.3,76.3,0,0,1-29.64,10.71,111.81,111.81,0,0,1-15.72,1.27,123.45,123.45,0,0,1-15.73-.73c-10.44-1.15-20.89-3.86-30.19-9.09a75.6,75.6,0,0,1-23.61-20.91,101.79,101.79,0,0,1-8.3-13.43,154.89,154.89,0,0,1-6.62-14.27,225.52,225.52,0,0,1-9.52-29.85l-8-30.16-2-7.54-1.91-7.56-3.8-15.13-15.2-60.5-30.41-121-60.68-242-7.6-30.26c-2.51-10.12-4.79-20.3-6.56-30.6-.87-5.16-1.61-10.34-2.09-15.57a99.08,99.08,0,0,1-.4-15.8,61.86,61.86,0,0,1,9.71-30.06,69.49,69.49,0,0,1,22.88-21.79,68.59,68.59,0,0,1,30.27-9l2-.12,2,0c1.33,0,2.64,0,4,0,2.63,0,5.26.2,7.88.42a76.11,76.11,0,0,1,15.58,3,51.75,51.75,0,0,1,14.44,6.81,44.06,44.06,0,0,1,11.33,11.33,60.64,60.64,0,0,1,4,6.89l1.75,3.53,1.64,3.57c2.14,4.79,4,9.67,5.79,14.6,3.51,9.85,6.39,19.89,9,30,1.26,5.06,2.47,10.13,3.57,15.22l3.44,15.21,6.91,30.42,27.62,121.66,55.24,243.32-2.27-.05,99.31-364c4.19-15.15,8.1-30.38,12.57-45.48,2.22-7.55,4.55-15.07,7.06-22.53,1.27-3.73,2.58-7.45,4-11.14s2.81-7.39,4.54-11a99.36,99.36,0,0,1,30.21-36.21,72.35,72.35,0,0,1,21.32-10.51,103.25,103.25,0,0,1,23.36-4.2c2-.18,3.95-.21,5.92-.31s4-.09,5.93,0c4,0,7.91.28,11.85.65a111.07,111.07,0,0,1,11.74,1.85,89.34,89.34,0,0,1,11.42,3.34,65.86,65.86,0,0,1,20.48,12.05,112.61,112.61,0,0,1,16.22,17.3,84,84,0,0,1,11.52,20.75c2.77,7.39,5.2,14.88,7.56,22.38C7298.46,6875.33,7302.77,6890.45,7307,6905.61Z" transform="translate(-6751.98 -6781.37)"/><path class="cls-1" d="M7455.73,7111.86a61.43,61.43,0,0,1,11,3.74,87.17,87.17,0,0,1,9.43,5.54,41.32,41.32,0,0,1,11.56,10.56c5.82,7.91,8.3,17.64,9,27.31.73,9.9-.24,19.84-1.4,29.67-.93,7.93-2.39,16.06-1.9,24.07a16,16,0,0,0,2,7.56c2.69,4.28,7.87,5.44,12.47,4,.06,0,1-.39,1.05-.36.2.36,7.67-3.26,8.42-3.63a87.42,87.42,0,0,0,8.24-4.74,101.7,101.7,0,0,0,15.35-12.34,135.1,135.1,0,0,0,13.68-15.59,185,185,0,0,0,12.19-18.41c4-6.77,7.56-13.75,10.88-20.86,3.46-7.42,6.63-15,9.56-22.64,3-7.93,5.83-16,8.43-24q4-12.41,7.39-25t6.52-25.54q3-12.66,5.69-25.4,2.63-12.42,5-24.9,2.3-12,4.46-24,2-11.23,4-22.48c1.21-6.85,2.41-13.71,3.65-20.56,1.1-6.09,2.23-12.17,3.44-18.24,1.54-7.7,3.56-15.25,5.53-22.85,3.05-11.73,5.57-23.65,6.21-35.79.6-11.2-.07-23-4.19-33.56a63.1,63.1,0,0,0-20.69-26.73,66.3,66.3,0,0,0-30-12.83,81,81,0,0,0-34.5,1.87,51.46,51.46,0,0,0-13.47,5.93,56.38,56.38,0,0,0-11.75,10.43,82,82,0,0,0-16.86,29.8c-3.26,10.13-5.88,20.45-8.3,30.8-1.39,5.92-2.61,11.88-4,17.81l-1.16,5.08-2.09,9.2-2.91,12.77-3.55,15.59-4.06,17.86-4.46,19.59L7480.9,6981l-4.76,20.92-4.71,20.71-4.54,19.95-4.19,18.4-3.71,16.32-3.11,13.68-2.34,10.29-1.45,6.36c-.25,1.08-.49,2.17-.74,3.25C7452.82,7111.18,7454.28,7111.51,7455.73,7111.86Z" transform="translate(-6751.98 -6781.37)"/><path class="cls-2" d="M7455.92,7111.09a53.78,53.78,0,0,1,15.28,5.94c1.18.7,2.33,1.43,3.47,2.15s2.28,1.4,3.44,2.18a43.38,43.38,0,0,1,6.41,5.22,42.53,42.53,0,0,1,9.17,13.72,59.09,59.09,0,0,1,4,16c1.26,10.93.48,21.91-.59,32.68-.53,5.43-1.28,10.77-1.46,16a61.28,61.28,0,0,0,.17,7.8c.24,2.52.75,4.84,1.93,6.35a6.79,6.79,0,0,0,2.16,1.91,7.71,7.71,0,0,0,2.79.86,8.48,8.48,0,0,0,3-.21,8.05,8.05,0,0,0,1.46-.48c.19-.08.31-.13.63-.24,1.31.58,4.09.5.78-.12l-.25,0,.65-.28c2.23-1,4.73-2.32,7-3.53s4.47-2.63,6.61-4.09a105,105,0,0,0,22.49-21.41A164.48,164.48,0,0,0,7562,7165.1a270.73,270.73,0,0,0,12.8-28.92c3.74-9.88,7-20,10-30.17.73-2.55,1.47-5.1,2.15-7.67l1.93-7.76c1.3-5.16,2.57-10.32,3.91-15.46s2.29-10.42,3.44-15.63,2.35-10.38,3.26-15.66l2.94-15.76c.49-2.63,1-5.25,1.41-7.9l1.37-7.92c.9-5.28,1.85-10.54,2.71-15.84s1.69-10.61,2.57-15.91c1.79-10.59,3.3-21.28,5.12-31.93l2.65-16c.93-5.37,1.87-10.79,2.88-16.17l.75-4.06.89-4.24c.61-2.8,1.26-5.56,1.93-8.27,1.33-5.4,2.75-10.69,3.93-15.62a152.27,152.27,0,0,0,4.72-29.2,99.2,99.2,0,0,0-.23-14,46.45,46.45,0,0,0-17.23-32.7,54.49,54.49,0,0,0-23.05-11.7,64.67,64.67,0,0,0-6.69-1.17c-2.29-.27-4.59-.47-6.91-.56a67.32,67.32,0,0,0-13.77.86,47.26,47.26,0,0,0-12.51,3.73c-.93.44-1.87.93-2.73,1.43s-1.69,1.05-2.54,1.66a47.13,47.13,0,0,0-5.07,4.3c-.83.81-1.72,1.7-2.51,2.56s-1.6,1.73-2.37,2.63a70.14,70.14,0,0,0-4.38,5.6,72.9,72.9,0,0,0-7,12.52c-1,2.22-1.84,4.43-2.74,7s-1.73,4.95-2.55,7.45c-1.64,5-3.17,10.1-4.64,15.24l-17,62.54c-5.52,20.91-11.13,41.79-16.57,62.72q-16.19,62.82-30.66,126l-.65-1Zm-.38,1.55-4.34-.94h0a.81.81,0,0,1-.62-1h0l57.12-253c1.27-5.26,2.59-10.52,4-15.74.73-2.61,1.49-5.22,2.28-7.81s1.64-5.2,2.64-7.76a84.35,84.35,0,0,1,7.35-14.69,83.46,83.46,0,0,1,10.13-12.95,59.94,59.94,0,0,1,6.07-5.62,43.83,43.83,0,0,1,7-4.56,59,59,0,0,1,15.6-5.48,83.43,83.43,0,0,1,32.76-.23,67.7,67.7,0,0,1,29.68,13.93,64.19,64.19,0,0,1,19.61,26.31,65.2,65.2,0,0,1,3.81,16.1,106.19,106.19,0,0,1,.47,16.43,166.17,166.17,0,0,1-5,32.29c-2.63,10.56-5.65,20.85-7.53,31.45l-3,15.91-2.86,15.95c-1.92,10.63-3.76,21.29-5.76,31.91l-3,15.95c-1,5.31-2.13,10.6-3.19,15.91-2.05,10.62-4.54,21.15-6.9,31.71-1.12,5.3-2.59,10.51-3.9,15.76s-2.65,10.5-4.09,15.72l-4.64,15.57-2.32,7.78c-.8,2.58-1.67,5.15-2.53,7.72-3.49,10.26-7.31,20.41-11.6,30.37a274.26,274.26,0,0,1-14.5,29.13,176.56,176.56,0,0,1-18.68,26.69,110.21,110.21,0,0,1-24.48,21.56c-2.32,1.45-4.7,2.81-7.14,4s-4.87,2.36-7.44,3.42c-.34.13-.65.26-1.06.38a2.14,2.14,0,0,1-.4.08c-1.21-.18-.39-.29-.07,0l-.43.15a11.89,11.89,0,0,1-2.1.58,12.82,12.82,0,0,1-4.37.11,11.57,11.57,0,0,1-4.17-1.48,10.58,10.58,0,0,1-3.22-3.06c-1.74-2.5-2.15-5.48-2.34-8.21a64.38,64.38,0,0,1,.06-8.22c.36-5.46,1.23-10.82,1.86-16.15,1.27-10.7,2.33-21.48,1.21-32.13a56.82,56.82,0,0,0-3.69-15.47,39.32,39.32,0,0,0-8.61-13.2,41.63,41.63,0,0,0-6.12-5c-1.09-.74-2.26-1.44-3.39-2.18s-2.27-1.45-3.42-2.14A52.36,52.36,0,0,0,7455.54,7112.64Z" transform="translate(-6751.98 -6781.37)"/></g><g id="G"><path class="cls-2" d="M7542.28,7287.21H7436.69a28.72,28.72,0,0,0-8.2,1,25.12,25.12,0,0,0-15,12.29,26.16,26.16,0,0,0-2.87,12.4v58.62c0,.81-.05,1.64,0,2.46,0,.49-.1.35.32.44a17.76,17.76,0,0,0,3.42,0h6.14c7.67,0,15.34,0,23,0,5.53,0,12.23.26,16.85,3.74,3.61,2.72,4.48,7.55,2.95,11.68-1.6,4.32-5.8,6.79-10,8.2-7,2.36-14.6,2.6-21.88,2.54-16-.14-32.22-2.23-47.33-7.76a92.45,92.45,0,0,1-35.44-22.86,77.56,77.56,0,0,1-19.44-37.64,94.73,94.73,0,0,1,1.44-45.39,80,80,0,0,1,23.13-36.33,106.84,106.84,0,0,1,44.21-23.78c8.88-2.41,18-3.43,27.18-4.47,9.38-1.08,17.91.17,26.9.46,9.25.31,17.08.1,24.54.31,26.33-1.09,1.16-2.87,1.5-4.88a57.31,57.31,0,0,1,2-7.93c2.67-9.56,5.57-19.06,7.65-28.78,4.27-20.06,6.14-45.08-11.21-59.74-8.23-6.95-19.08-10.21-29.6-11.42a253.66,253.66,0,0,0-35.18-1.44,292.64,292.64,0,0,0-66.83,9.15A238.09,238.09,0,0,0,7288,7141.2a230.05,230.05,0,0,0-48.35,36.68,187.15,187.15,0,0,0-33.27,44.28,172.91,172.91,0,0,0-17.57,51,202.72,202.72,0,0,0-1.83,57.15,183.77,183.77,0,0,0,13.89,53.28,189.34,189.34,0,0,0,29.56,47.14,232.77,232.77,0,0,0,43.37,39.5,222.69,222.69,0,0,0,50.29,26.63,238.76,238.76,0,0,0,56.65,13.41,265.38,265.38,0,0,0,62.35-.08,197.61,197.61,0,0,0,56.52-15.34,172.27,172.27,0,0,0,47.78-31.59c13.33-12.54,24.26-27.67,30.66-44.89a112.46,112.46,0,0,0,5.91-53.13c-2.5-19.26-10.33-37.38-21.23-53.35A184,184,0,0,0,7542.28,7287.21Z" transform="translate(-6751.98 -6781.37)"/><path class="cls-1" d="M7466,7296.8l-28.08-.15c-4.6-.08-6.58.24-9.38,1.58a15.92,15.92,0,0,0-6.44,5.87,14.3,14.3,0,0,0-1.68,3.95,19.74,19.74,0,0,0-.61,4.71l-.07,14-.15,28.08-.08,14,0,3.66v.9l0,.61c6.53,7.09-9.4-12-7.31-8.4,1.12.2.09,0,.19,0a1.5,1.5,0,0,0-.32,0c.08,0,.55,0,1.42-.07l.79,0h1.36l3.51,0,14,.08,7,0,3.53,0c1.22,0,2.52,0,3.86.1a44.44,44.44,0,0,1,8.63,1.17,25.35,25.35,0,0,1,9.58,4.51,17.58,17.58,0,0,1,4.45,5.19,18.52,18.52,0,0,1,2.13,6.23,19.86,19.86,0,0,1-2,12.06,19.81,19.81,0,0,1-3.67,4.92,23.74,23.74,0,0,1-4.35,3.34,34.16,34.16,0,0,1-8.59,3.54,66.06,66.06,0,0,1-15.89,2.13c-2.53.07-5,.06-7.4,0s-4.88-.13-7.33-.27c-4.89-.27-9.79-.74-14.69-1.46a130.64,130.64,0,0,1-28.93-7.48,103.39,103.39,0,0,1-26.35-15,90.91,90.91,0,0,1-11.21-10.48,82.7,82.7,0,0,1-9.24-12.4,85.73,85.73,0,0,1-6.81-13.83,89.17,89.17,0,0,1-4.23-14.75,107,107,0,0,1-1.56-30.1,98.38,98.38,0,0,1,2.61-15,84.29,84.29,0,0,1,5.17-14.47,88.44,88.44,0,0,1,17.52-24.89,105.6,105.6,0,0,1,24.06-17.93,119.79,119.79,0,0,1,27.67-10.89,132,132,0,0,1,14.53-2.77c2.4-.34,4.78-.63,7.14-.9l3.51-.39,1.75-.19,1.89-.19a97.87,97.87,0,0,1,15,0l7,.47c2.29.15,4.47.25,6.79.32,4.57.14,9.19.16,13.9.21l3.55,0,3.52.08.77,0,.63,0,1.71-.08,3.38-.19c1.1-.07,2.2-.16,3.15-.28l.63-.08.32-.06a3,3,0,0,0-.35.12c-.34.63-.66-1-3.35,3.52-.66,8.06,3.06,6.86,2.56,7.44a2.51,2.51,0,0,0,.51.25l-.27-.08-.63-.17-1.57-.37c-1.11-.25-2.28-.5-3.58-.83-.66-.16-1.33-.34-2.18-.62a14.28,14.28,0,0,1-1.62-.67,8.08,8.08,0,0,1-1.57-1,6.81,6.81,0,0,1-2.45-6.37,39.9,39.9,0,0,1,.89-4c.38-1.38.75-2.47,1.06-3.5l.95-3.31c2.62-9.05,5.29-17.87,7.19-26.69s3.11-17.71,2.68-26.26-2.66-16.66-7.57-22.78-12.25-10.33-20.44-12.6c-2-.57-4.15-1.05-6.29-1.42s-4.28-.63-6.58-.88q-6.81-.72-13.67-1.06c-9.14-.45-18.32-.35-27.52.1a281.49,281.49,0,0,0-54.48,7.86,235.2,235.2,0,0,0-51.35,19.29,226.46,226.46,0,0,0-45.26,31,192.28,192.28,0,0,0-35.74,41.44,166.75,166.75,0,0,0-21.2,50.28,193.74,193.74,0,0,0-4.86,54.67,184.79,184.79,0,0,0,10.6,53.89,180.68,180.68,0,0,0,26.46,48.19,228.69,228.69,0,0,0,86.08,68.24,226.31,226.31,0,0,0,53,16.33,264,264,0,0,0,27.63,3.48,267,267,0,0,0,27.86.63,220.72,220.72,0,0,0,55-8.28,177.58,177.58,0,0,0,50.31-23.42c15.35-10.43,29.29-23.25,39.58-38.76a106.2,106.2,0,0,0,12.32-24.9,112,112,0,0,0,4.08-55.11,116.25,116.25,0,0,0-8.32-26.65c-7.6-17.09-19-32.31-31.95-45.75,13.12,13.3,24.68,28.41,32.5,45.51a117,117,0,0,1,8.66,26.73,113.35,113.35,0,0,1-3.54,55.75,107.92,107.92,0,0,1-12.24,25.42,129.69,129.69,0,0,1-17.93,21.8,167.32,167.32,0,0,1-21.8,17.95,180.06,180.06,0,0,1-50.82,24.32,223.24,223.24,0,0,1-55.69,9,275.09,275.09,0,0,1-56.35-3.56,231.48,231.48,0,0,1-54.23-16.08,234.07,234.07,0,0,1-88.9-69A187.29,187.29,0,0,1,7194,7375.5a192,192,0,0,1-11.59-55.77,201.48,201.48,0,0,1,4.45-56.87,174.77,174.77,0,0,1,21.67-53,201.31,201.31,0,0,1,36.88-43.72,235.85,235.85,0,0,1,46.79-32.82,244.85,244.85,0,0,1,53.31-20.68,291.46,291.46,0,0,1,56.41-8.76c9.48-.57,19-.78,28.6-.41q7.17.27,14.33,1c2.35.22,4.85.49,7.34.9a74.93,74.93,0,0,1,7.42,1.59,58.2,58.2,0,0,1,14.37,5.89,43.49,43.49,0,0,1,19.83,24.58,60.54,60.54,0,0,1,2.82,15.27c.61,10.17-.71,20-2.63,29.48s-4.61,18.65-7.09,27.6l-1,3.45c-.34,1.21-.7,2.35-.93,3.23s-.4,1.79-.57,2.83a6,6,0,0,0-2.06-5.63,4.17,4.17,0,0,0-.83-.56c-.2-.09-.11,0,0,0s.72.22,1.2.34c1,.24,2.08.48,3.25.74l1.86.42,1.06.28c.39.11.79.23,1.39.46a8.86,8.86,0,0,1,1.31.62c-.27.72,3.79-.28,3,8.09-2.82,4.76-3.44,3.27-4,4a8.83,8.83,0,0,1-1.19.38,21.94,21.94,0,0,1-2.5.44c-1.38.17-2.61.27-3.85.36l-3.63.21-1.79.09c-.27,0-.8,0-1.12,0l-1,0-3.5,0h-3.46c-4.65,0-9.4,0-14.17-.05-2.37,0-4.86-.12-7.24-.25l-7-.4a85.27,85.27,0,0,0-13,.11l-3.34.38-3.45.42c-2.29.29-4.56.59-6.79.93a117.87,117.87,0,0,0-13,2.61c-17,4.57-32.93,13.25-45,25.6a74.19,74.19,0,0,0-14.43,20.94,70.84,70.84,0,0,0-4.13,12,83,83,0,0,0-2,12.68,91.07,91.07,0,0,0,1.62,25.77,72.71,72.71,0,0,0,3.62,12.16,70.75,70.75,0,0,0,5.69,11.26,66.9,66.9,0,0,0,7.62,10,74.79,74.79,0,0,0,9.37,8.57,87.43,87.43,0,0,0,22.4,12.43c16.15,6.15,34.23,8,52,7.52a50.13,50.13,0,0,0,11.86-1.66,17.16,17.16,0,0,0,4.35-1.78,4.34,4.34,0,0,0,1.71-1.62,2.9,2.9,0,0,0,.22-.77,2.25,2.25,0,0,0,0-.78c-.11-.44-.17-.42-.24-.48a8.65,8.65,0,0,0-3.09-1.27,26.72,26.72,0,0,0-5.27-.61c-1,0-2-.05-3.15-.05l-3.5,0-7,0-14,.07-3.51,0h-1.37c-.29,0-1,.08-2.08.1a15.63,15.63,0,0,1-2.08-.12c-.19,0-1.5-.26-.66-.1,1.69,3.68-14.32-15.75-7.71-9,0,.56,0-.15,0-.27v-5.08l-.08-14-.15-28.08-.07-14.09a37.61,37.61,0,0,1,1.1-9.18,33.2,33.2,0,0,1,3.7-9,34.56,34.56,0,0,1,13.88-13,33,33,0,0,1,9.24-3.15,41,41,0,0,1,4.61-.53c.73,0,1.45-.06,2.16-.07H7438l28.08-.15a9.59,9.59,0,1,1,.1,19.18Z" transform="translate(-6751.98 -6781.37)"/><polygon class="cls-1" points="790.31 505.83 682.85 461.93 708.35 505.83 682.85 549.73 790.31 505.83"/></g><g id="shadow"><path class="cls-1" d="M7481.17,7126.31c12.85,15.3,10.5,37.6,6.58,55.73-1.93,8.94-4.54,17.7-7,26.5-.95,3.35-1.9,6.72-2.63,10.13-.53,2.5-1.44,6-.39,8.48,1,2.29,4.21,1.61,6.2,1.54a84.45,84.45,0,0,0,8.55-.7,78.92,78.92,0,0,0,8.62-1.65c.7-.18,7.81-2.42,7.81-2.42s-3.05.85-3.25.88a10.07,10.07,0,0,1-11.75-8.4c-1.34-6.32-.27-13.2.46-19.53,1-8.68,2.19-17.34,2.52-26.08.35-8.95-.14-18.1-2.9-26.68a41.75,41.75,0,0,0-15.88-21.7c-1-.72-2.13-1.4-3.23-2A72.36,72.36,0,0,1,7481.17,7126.31Z" transform="translate(-6751.98 -6781.37)"/></g></svg>